<svg xmlns="http://www.w3.org/2000/svg" style="display:none" aria-hidden="true">
  <symbol id="logo-mark" viewBox="0 0 32 32">
    <g fill="none" stroke="#2F5D46" stroke-width="1.9" stroke-linecap="round">
      <path d="M16 30 L16 16"/>
      <path d="M16 21 C16 21 10 19 8 13"/>
      <path d="M16 18 C16 18 22 17 24 11"/>
      <path d="M16 16 C16 16 16 9 20 6"/>
    </g>
    <circle cx="8" cy="13" r="2.5" fill="#2F5D46"/>
    <circle cx="24" cy="11" r="2.5" fill="#5E8570"/>
    <circle cx="20" cy="6" r="2.7" fill="#BF6A3F"/>
    <circle cx="16" cy="30" r="1.7" fill="#5E8570"/>
  </symbol>
  <symbol id="logo-mark-sm" viewBox="0 0 32 32">
    <g fill="none" stroke="#5E8570" stroke-width="2.4" stroke-linecap="round">
      <path d="M16 30 L16 16"/>
      <path d="M16 21 C16 21 10 19 8 13"/>
      <path d="M16 18 C16 18 22 17 24 11"/>
    </g>
    <circle cx="8" cy="13" r="3" fill="#2F5D46"/>
    <circle cx="24" cy="11" r="3" fill="#5E8570"/>
    <circle cx="16" cy="16" r="3.2" fill="#BF6A3F"/>
  </symbol>
</svg>
